<svg xmlns="http://www.w3.org/2000/svg" viewBox="-18.1 -21.3 45.2 57.8">
  <defs><linearGradient id="g" x1="0" y1="1" x2="1" y2="0"><stop offset="0" stop-color="#0B3D2C"/><stop offset="0.55" stop-color="#15734C"/><stop offset="1" stop-color="#2BA572"/></linearGradient></defs>
  <rect x="-9999" y="-9999" width="19999" height="19999" fill="#F7F5EE"/>
  <path d="M 0.16,0.43 C 0.17,0.45 0.17,0.44 0.17,0.45 C 0.17,0.45 0.17,0.45 0.17,0.45 C 0.17,0.45 0.17,0.45 0.17,0.45 C 0.17,0.45 0.17,0.45 0.17,0.45 C 0.17,0.46 0.17,0.46 0.17,0.46 C 0.17,0.46 0.17,0.46 0.17,0.46 C 0.17,0.46 0.17,0.46 0.17,0.47 C 0.17,0.47 0.17,0.47 0.17,0.47 C 0.17,0.47 0.17,0.47 0.17,0.47 C 0.17,0.48 0.17,0.48 0.17,0.48 C 0.17,0.48 0.17,0.48 0.17,0.48 C 0.17,0.48 0.17,0.49 0.17,0.49 C 0.17,0.49 0.17,0.49 0.17,0.49 C 0.18,0.49 0.18,0.50 0.18,0.50 C 0.18,0.50 0.18,0.50 0.18,0.50 C 0.18,0.50 0.18,0.51 0.18,0.51 C 0.18,0.51 0.18,0.51 0.18,0.51 C 0.18,0.51 0.18,0.52 0.18,0.52 C 0.18,0.52 0.18,0.52 0.18,0.52 C 0.18,0.53 0.18,0.53 0.18,0.53 C 0.18,0.53 0.18,0.53 0.17,0.54 C 0.17,0.54 0.17,0.54 0.17,0.54 C 0.17,0.54 0.17,0.55 0.17,0.55 C 0.17,0.55 0.17,0.55 0.17,0.55 C 0.17,0.56 0.17,0.56 0.17,0.56 C 0.17,0.56 0.17,0.56 0.17,0.57 C 0.17,0.57 0.17,0.57 0.17,0.57 C 0.17,0.58 0.17,0.58 0.17,0.58 C 0.17,0.58 0.17,0.59 0.17,0.59 C 0.17,0.59 0.17,0.59 0.17,0.59 C 0.17,0.60 0.17,0.60 0.17,0.60 C 0.16,0.60 0.16,0.61 0.16,0.61 C 0.16,0.61 0.16,0.61 0.16,0.62 C 0.16,0.62 0.16,0.62 0.16,0.62 C 0.16,0.63 0.16,0.63 0.16,0.63 C 0.16,0.64 0.16,0.64 0.15,0.64 C 0.15,0.64 0.15,0.65 0.15,0.65 C 0.15,0.65 0.15,0.65 0.15,0.66 C 0.15,0.66 0.15,0.66 0.15,0.67 C 0.15,0.67 0.14,0.67 0.14,0.67 C 0.14,0.68 0.14,0.68 0.14,0.68 C 0.14,0.68 0.14,0.69 0.14,0.69 C 0.13,0.69 0.13,0.70 0.13,0.70 C 0.13,0.70 0.13,0.71 0.13,0.71 C 0.13,0.71 0.13,0.71 0.12,0.72 C 0.12,0.72 0.12,0.72 0.12,0.73 C 0.12,0.73 0.12,0.73 0.11,0.73 C 0.11,0.74 0.11,0.74 0.11,0.74 C 0.11,0.75 0.11,0.75 0.10,0.75 C 0.10,0.76 0.10,0.76 0.10,0.76 C 0.10,0.77 0.10,0.77 0.09,0.77 C 0.09,0.77 0.09,0.78 0.09,0.78 C 0.09,0.78 0.08,0.79 0.08,0.79 C 0.08,0.79 0.08,0.80 0.08,0.80 C 0.07,0.80 0.07,0.81 0.07,0.81 C 0.07,0.81 0.06,0.82 0.06,0.82 C 0.06,0.82 0.06,0.83 0.05,0.83 C 0.05,0.83 0.05,0.83 0.05,0.84 C 0.04,0.84 0.04,0.84 0.04,0.85 C 0.04,0.85 0.03,0.85 0.03,0.86 C 0.03,0.86 0.03,0.86 0.02,0.87 C 0.02,0.87 0.02,0.87 0.01,0.88 C 0.01,0.88 0.01,0.88 0.01,0.89 C 0.00,0.89 -0.00,0.89 -0.00,0.90 C -0.01,0.90 -0.01,0.90 -0.01,0.91 C -0.02,0.91 -0.02,0.91 -0.02,0.92 C -0.03,0.92 -0.03,0.92 -0.03,0.92 C -0.04,0.93 -0.04,0.93 -0.04,0.93 C -0.05,0.94 -0.05,0.94 -0.05,0.94 C -0.06,0.95 -0.06,0.95 -0.06,0.95 C -0.07,0.96 -0.07,0.96 -0.08,0.96 C -0.08,0.97 -0.08,0.97 -0.09,0.97 C -0.09,0.98 -0.09,0.98 -0.10,0.98 C -0.10,0.98 -0.11,0.99 -0.11,0.99 C -0.11,0.99 -0.12,1.00 -0.12,1.00 C -0.13,1.00 -0.13,1.01 -0.14,1.01 C -0.14,1.01 -0.14,1.01 -0.15,1.02 C -0.15,1.02 -0.16,1.02 -0.16,1.03 C -0.17,1.03 -0.17,1.03 -0.18,1.04 C -0.18,1.04 -0.18,1.04 -0.19,1.04 C -0.19,1.05 -0.20,1.05 -0.20,1.05 C -0.21,1.06 -0.21,1.06 -0.22,1.06 C -0.22,1.06 -0.23,1.07 -0.23,1.07 C -0.24,1.07 -0.24,1.07 -0.25,1.08 C -0.25,1.08 -0.26,1.08 -0.26,1.08 C -0.27,1.09 -0.27,1.09 -0.28,1.09 C -0.29,1.10 -0.29,1.10 -0.30,1.10 C -0.30,1.10 -0.31,1.11 -0.31,1.11 C -0.32,1.11 -0.32,1.11 -0.33,1.11 C -0.33,1.12 -0.34,1.12 -0.35,1.12 C -0.35,1.12 -0.36,1.13 -0.36,1.13 C -0.37,1.13 -0.38,1.13 -0.38,1.14 C -0.39,1.14 -0.39,1.14 -0.40,1.14 C -0.41,1.14 -0.41,1.15 -0.42,1.15 C -0.42,1.15 -0.43,1.15 -0.44,1.15 C -0.44,1.16 -0.45,1.16 -0.46,1.16 C -0.46,1.16 -0.47,1.16 -0.47,1.16 C -0.48,1.17 -0.49,1.17 -0.49,1.17 C -0.50,1.17 -0.51,1.17 -0.51,1.17 C -0.52,1.18 -0.53,1.18 -0.53,1.18 C -0.54,1.18 -0.55,1.18 -0.55,1.18 C -0.56,1.19 -0.57,1.19 -0.58,1.19 C -0.58,1.19 -0.59,1.19 -0.60,1.19 C -0.60,1.19 -0.61,1.19 -0.62,1.20 C -0.63,1.20 -0.63,1.20 -0.64,1.20 C -0.65,1.20 -0.65,1.20 -0.66,1.20 C -0.67,1.20 -0.68,1.20 -0.68,1.20 C -0.69,1.20 -0.70,1.21 -0.71,1.21 C -0.71,1.21 -0.72,1.21 -0.73,1.21 C -0.74,1.21 -0.74,1.21 -0.75,1.21 C -0.76,1.21 -0.77,1.21 -0.77,1.21 C -0.78,1.21 -0.79,1.21 -0.80,1.21 C -0.81,1.21 -0.81,1.21 -0.82,1.21 C -0.83,1.21 -0.84,1.21 -0.85,1.21 C -0.85,1.21 -0.86,1.21 -0.87,1.21 C -0.88,1.21 -0.89,1.21 -0.89,1.21 C -0.90,1.21 -0.91,1.21 -0.92,1.21 C -0.93,1.21 -0.94,1.21 -0.94,1.21 C -0.95,1.21 -0.96,1.21 -0.97,1.20 C -0.98,1.20 -0.99,1.20 -0.99,1.20 C -1.00,1.20 -1.01,1.20 -1.02,1.20 C -1.03,1.20 -1.04,1.20 -1.05,1.20 C -1.05,1.19 -1.06,1.19 -1.07,1.19 C -1.08,1.19 -1.09,1.19 -1.10,1.19 C -1.11,1.19 -1.12,1.18 -1.12,1.18 C -1.13,1.18 -1.14,1.18 -1.15,1.18 C -1.16,1.18 -1.17,1.17 -1.18,1.17 C -1.19,1.17 -1.20,1.17 -1.20,1.17 C -1.21,1.16 -1.22,1.16 -1.23,1.16 C -1.24,1.16 -1.25,1.15 -1.26,1.15 C -1.27,1.15 -1.28,1.15 -1.29,1.14 C -1.29,1.14 -1.30,1.14 -1.31,1.14 C -1.32,1.13 -1.33,1.13 -1.34,1.13 C -1.35,1.12 -1.36,1.12 -1.37,1.12 C -1.38,1.11 -1.39,1.11 -1.40,1.11 C -1.40,1.10 -1.41,1.10 -1.42,1.10 C -1.43,1.09 -1.44,1.09 -1.45,1.09 C -1.46,1.08 -1.47,1.08 -1.48,1.07 C -1.49,1.07 -1.50,1.07 -1.51,1.06 C -1.52,1.06 -1.53,1.05 -1.53,1.05 C -1.54,1.04 -1.55,1.04 -1.56,1.04 C -1.57,1.03 -1.58,1.03 -1.59,1.02 C -1.60,1.02 -1.61,1.01 -1.62,1.01 C -1.63,1.00 -1.64,1.00 -1.65,0.99 C -1.66,0.99 -1.67,0.98 -1.67,0.98 C -1.68,0.97 -1.69,0.97 -1.70,0.96 C -1.71,0.95 -1.72,0.95 -1.73,0.94 C -1.74,0.94 -1.75,0.93 -1.76,0.93 C -1.77,0.92 -1.78,0.91 -1.79,0.91 C -1.80,0.90 -1.81,0.90 -1.81,0.89 C -1.82,0.88 -1.83,0.88 -1.84,0.87 C -1.85,0.86 -1.86,0.86 -1.87,0.85 C -1.88,0.84 -1.89,0.84 -1.90,0.83 C -1.91,0.82 -1.92,0.82 -1.93,0.81 C -1.93,0.80 -1.94,0.79 -1.95,0.79 C -1.96,0.78 -1.97,0.77 -1.98,0.76 C -1.99,0.76 -2.00,0.75 -2.01,0.74 C -2.02,0.73 -2.03,0.73 -2.03,0.72 C -2.04,0.71 -2.05,0.70 -2.06,0.69 C -2.07,0.68 -2.08,0.68 -2.09,0.67 C -2.10,0.66 -2.11,0.65 -2.11,0.64 C -2.12,0.63 -2.13,0.62 -2.14,0.62 C -2.15,0.61 -2.16,0.60 -2.17,0.59 C -2.17,0.58 -2.18,0.57 -2.19,0.56 C -2.20,0.55 -2.21,0.54 -2.22,0.53 C -2.23,0.52 -2.23,0.51 -2.24,0.50 C -2.25,0.49 -2.26,0.48 -2.27,0.47 C -2.28,0.46 -2.28,0.45 -2.29,0.44 C -2.30,0.43 -2.31,0.42 -2.32,0.41 C -2.32,0.40 -2.33,0.39 -2.34,0.38 C -2.35,0.37 -2.36,0.36 -2.36,0.35 C -2.37,0.34 -2.38,0.33 -2.39,0.32 C -2.40,0.31 -2.40,0.29 -2.41,0.28 C -2.42,0.27 -2.43,0.26 -2.43,0.25 C -2.44,0.24 -2.45,0.23 -2.46,0.21 C -2.46,0.20 -2.47,0.19 -2.48,0.18 C -2.49,0.17 -2.49,0.16 -2.50,0.14 C -2.51,0.13 -2.51,0.12 -2.52,0.11 C -2.53,0.09 -2.53,0.08 -2.54,0.07 C -2.55,0.06 -2.56,0.04 -2.56,0.03 C -2.57,0.02 -2.58,0.01 -2.58,-0.01 C -2.59,-0.02 -2.59,-0.03 -2.60,-0.05 C -2.61,-0.06 -2.61,-0.07 -2.62,-0.09 C -2.63,-0.10 -2.63,-0.11 -2.64,-0.13 C -2.64,-0.14 -2.65,-0.15 -2.66,-0.17 C -2.66,-0.18 -2.67,-0.19 -2.67,-0.21 C -2.68,-0.22 -2.68,-0.24 -2.69,-0.25 C -2.70,-0.27 -2.70,-0.28 -2.71,-0.29 C -2.71,-0.31 -2.72,-0.32 -2.72,-0.34 C -2.73,-0.35 -2.73,-0.37 -2.74,-0.38 C -2.74,-0.40 -2.75,-0.41 -2.75,-0.43 C -2.76,-0.44 -2.76,-0.46 -2.76,-0.47 C -2.77,-0.49 -2.77,-0.50 -2.78,-0.52 C -2.78,-0.53 -2.79,-0.55 -2.79,-0.56 C -2.79,-0.58 -2.80,-0.59 -2.80,-0.61 C -2.80,-0.62 -2.81,-0.64 -2.81,-0.66 C -2.82,-0.67 -2.82,-0.69 -2.82,-0.70 C -2.83,-0.72 -2.83,-0.74 -2.83,-0.75 C -2.84,-0.77 -2.84,-0.79 -2.84,-0.80 C -2.84,-0.82 -2.85,-0.83 -2.85,-0.85 C -2.85,-0.87 -2.85,-0.88 -2.86,-0.90 C -2.86,-0.92 -2.86,-0.93 -2.86,-0.95 C -2.87,-0.97 -2.87,-0.99 -2.87,-1.00 C -2.87,-1.02 -2.87,-1.04 -2.87,-1.05 C -2.88,-1.07 -2.88,-1.09 -2.88,-1.11 C -2.88,-1.12 -2.88,-1.14 -2.88,-1.16 C -2.88,-1.18 -2.88,-1.19 -2.88,-1.21 C -2.88,-1.23 -2.89,-1.25 -2.89,-1.26 C -2.89,-1.28 -2.89,-1.30 -2.89,-1.32 C -2.89,-1.33 -2.89,-1.35 -2.89,-1.37 C -2.89,-1.39 -2.89,-1.41 -2.89,-1.42 C -2.89,-1.44 -2.88,-1.46 -2.88,-1.48 C -2.88,-1.50 -2.88,-1.52 -2.88,-1.53 C -2.88,-1.55 -2.88,-1.57 -2.88,-1.59 C -2.88,-1.61 -2.88,-1.63 -2.87,-1.65 C -2.87,-1.66 -2.87,-1.68 -2.87,-1.70 C -2.87,-1.72 -2.86,-1.74 -2.86,-1.76 C -2.86,-1.78 -2.86,-1.80 -2.85,-1.81 C -2.85,-1.83 -2.85,-1.85 -2.85,-1.87 C -2.84,-1.89 -2.84,-1.91 -2.84,-1.93 C -2.83,-1.95 -2.83,-1.97 -2.83,-1.99 C -2.82,-2.01 -2.82,-2.02 -2.81,-2.04 C -2.81,-2.06 -2.81,-2.08 -2.80,-2.10 C -2.80,-2.12 -2.79,-2.14 -2.79,-2.16 C -2.78,-2.18 -2.78,-2.20 -2.77,-2.22 C -2.77,-2.24 -2.76,-2.26 -2.76,-2.28 C -2.75,-2.30 -2.75,-2.31 -2.74,-2.33 C -2.73,-2.35 -2.72,-2.37 -2.71,-2.39 C -2.71,-2.41 -2.70,-2.43 -2.69,-2.45 C -2.68,-2.47 -2.67,-2.48 -2.66,-2.50 C -2.65,-2.52 -2.64,-2.54 -2.63,-2.56 C -2.62,-2.58 -2.61,-2.60 -2.60,-2.61 C -2.59,-2.63 -2.58,-2.65 -2.57,-2.67 C -2.56,-2.69 -2.55,-2.71 -2.54,-2.72 C -2.53,-2.74 -2.52,-2.76 -2.51,-2.78 C -2.50,-2.80 -2.49,-2.82 -2.48,-2.83 C -2.47,-2.85 -2.45,-2.87 -2.44,-2.89 C -2.43,-2.91 -2.42,-2.93 -2.41,-2.94 C -2.39,-2.96 -2.38,-2.98 -2.37,-3.00 C -2.36,-3.02 -2.35,-3.03 -2.33,-3.05 C -2.32,-3.07 -2.31,-3.09 -2.29,-3.10 C -2.28,-3.12 -2.27,-3.14 -2.25,-3.16 C -2.24,-3.17 -2.23,-3.19 -2.21,-3.21 C -2.20,-3.23 -2.19,-3.24 -2.17,-3.26 C -2.16,-3.28 -2.14,-3.30 -2.13,-3.31 C -2.11,-3.33 -2.10,-3.35 -2.08,-3.36 C -2.07,-3.38 -2.05,-3.40 -2.04,-3.41 C -2.02,-3.43 -2.01,-3.45 -1.99,-3.46 C -1.98,-3.48 -1.96,-3.50 -1.95,-3.51 C -1.93,-3.53 -1.91,-3.55 -1.90,-3.56 C -1.88,-3.58 -1.87,-3.60 -1.85,-3.61 C -1.83,-3.63 -1.82,-3.64 -1.80,-3.66 C -1.78,-3.68 -1.76,-3.69 -1.75,-3.71 C -1.73,-3.72 -1.71,-3.74 -1.69,-3.75 C -1.68,-3.77 -1.66,-3.79 -1.64,-3.80 C -1.62,-3.82 -1.61,-3.83 -1.59,-3.85 C -1.57,-3.86 -1.55,-3.88 -1.53,-3.89 C -1.51,-3.91 -1.49,-3.92 -1.48,-3.93 C -1.46,-3.95 -1.44,-3.96 -1.42,-3.98 C -1.40,-3.99 -1.38,-4.01 -1.36,-4.02 C -1.34,-4.04 -1.32,-4.05 -1.30,-4.06 C -1.28,-4.08 -1.26,-4.09 -1.24,-4.10 C -1.22,-4.12 -1.20,-4.13 -1.18,-4.14 C -1.16,-4.16 -1.14,-4.17 -1.12,-4.18 C -1.10,-4.20 -1.07,-4.21 -1.05,-4.22 C -1.03,-4.24 -1.01,-4.25 -0.99,-4.26 C -0.97,-4.27 -0.95,-4.29 -0.92,-4.30 C -0.90,-4.31 -0.88,-4.32 -0.86,-4.33 C -0.84,-4.35 -0.81,-4.36 -0.79,-4.37 C -0.77,-4.38 -0.75,-4.39 -0.72,-4.40 C -0.70,-4.41 -0.68,-4.43 -0.65,-4.44 C -0.63,-4.45 -0.61,-4.46 -0.58,-4.47 C -0.56,-4.48 -0.54,-4.49 -0.51,-4.50 C -0.49,-4.51 -0.47,-4.52 -0.44,-4.53 C -0.42,-4.54 -0.39,-4.55 -0.37,-4.56 C -0.35,-4.57 -0.32,-4.58 -0.30,-4.59 C -0.27,-4.60 -0.25,-4.61 -0.22,-4.62 C -0.20,-4.63 -0.17,-4.63 -0.15,-4.64 C -0.12,-4.65 -0.10,-4.66 -0.07,-4.67 C -0.05,-4.68 -0.02,-4.68 0.00,-4.69 C 0.03,-4.70 0.05,-4.71 0.08,-4.71 C 0.11,-4.72 0.13,-4.73 0.16,-4.74 C 0.18,-4.74 0.21,-4.75 0.24,-4.76 C 0.26,-4.76 0.29,-4.77 0.32,-4.78 C 0.34,-4.78 0.37,-4.79 0.40,-4.79 C 0.42,-4.80 0.45,-4.81 0.48,-4.81 C 0.50,-4.82 0.53,-4.82 0.56,-4.83 C 0.58,-4.83 0.61,-4.84 0.64,-4.84 C 0.67,-4.85 0.69,-4.85 0.72,-4.85 C 0.75,-4.86 0.78,-4.86 0.81,-4.87 C 0.83,-4.87 0.86,-4.87 0.89,-4.88 C 0.92,-4.88 0.95,-4.88 0.97,-4.89 C 1.00,-4.89 1.03,-4.89 1.06,-4.89 C 1.09,-4.90 1.12,-4.90 1.14,-4.90 C 1.17,-4.90 1.20,-4.90 1.23,-4.91 C 1.26,-4.91 1.29,-4.91 1.32,-4.91 C 1.35,-4.91 1.37,-4.91 1.40,-4.91 C 1.43,-4.91 1.46,-4.91 1.49,-4.91 C 1.52,-4.91 1.55,-4.91 1.58,-4.91 C 1.61,-4.91 1.64,-4.91 1.67,-4.91 C 1.70,-4.91 1.73,-4.91 1.76,-4.91 C 1.79,-4.91 1.82,-4.90 1.85,-4.90 C 1.88,-4.90 1.91,-4.90 1.94,-4.90 C 1.96,-4.89 1.99,-4.89 2.02,-4.89 C 2.05,-4.88 2.08,-4.88 2.11,-4.88 C 2.15,-4.87 2.18,-4.87 2.21,-4.87 C 2.24,-4.86 2.27,-4.86 2.30,-4.85 C 2.33,-4.85 2.36,-4.85 2.39,-4.84 C 2.42,-4.84 2.45,-4.83 2.48,-4.83 C 2.51,-4.82 2.54,-4.81 2.57,-4.81 C 2.60,-4.80 2.63,-4.80 2.66,-4.79 C 2.69,-4.78 2.72,-4.78 2.75,-4.77 C 2.78,-4.76 2.81,-4.75 2.84,-4.75 C 2.87,-4.74 2.91,-4.73 2.94,-4.72 C 2.97,-4.72 3.00,-4.71 3.03,-4.70 C 3.06,-4.69 3.09,-4.68 3.12,-4.67 C 3.15,-4.66 3.18,-4.65 3.21,-4.64 C 3.24,-4.63 3.27,-4.62 3.30,-4.61 C 3.33,-4.60 3.37,-4.59 3.40,-4.58 C 3.43,-4.57 3.46,-4.56 3.49,-4.55 C 3.52,-4.54 3.55,-4.53 3.58,-4.51 C 3.61,-4.50 3.64,-4.49 3.67,-4.48 C 3.70,-4.46 3.73,-4.45 3.76,-4.44 C 3.79,-4.42 3.82,-4.41 3.85,-4.40 C 3.88,-4.38 3.91,-4.37 3.94,-4.36 C 3.97,-4.34 4.00,-4.33 4.04,-4.31 C 4.07,-4.30 4.10,-4.28 4.13,-4.27 C 4.16,-4.25 4.19,-4.24 4.22,-4.22 C 4.25,-4.20 4.28,-4.19 4.31,-4.17 C 4.34,-4.16 4.37,-4.14 4.40,-4.12 C 4.43,-4.10 4.45,-4.09 4.48,-4.07 C 4.51,-4.05 4.54,-4.03 4.57,-4.02 C 4.60,-4.00 4.63,-3.98 4.66,-3.96 C 4.69,-3.94 4.72,-3.92 4.75,-3.90 C 4.78,-3.88 4.81,-3.86 4.84,-3.84 C 4.87,-3.82 4.89,-3.80 4.92,-3.78 C 4.95,-3.76 4.98,-3.74 5.01,-3.72 C 5.04,-3.70 5.07,-3.68 5.09,-3.66 C 5.12,-3.64 5.15,-3.61 5.18,-3.59 C 5.21,-3.57 5.24,-3.55 5.26,-3.52 C 5.29,-3.50 5.32,-3.48 5.35,-3.45 C 5.38,-3.43 5.40,-3.41 5.43,-3.38 C 5.46,-3.36 5.49,-3.34 5.51,-3.31 C 5.54,-3.29 5.57,-3.26 5.59,-3.24 C 5.62,-3.21 5.65,-3.19 5.67,-3.16 C 5.70,-3.14 5.73,-3.11 5.75,-3.08 C 5.78,-3.06 5.81,-3.03 5.83,-3.00 C 5.86,-2.98 5.88,-2.95 5.91,-2.92 C 5.94,-2.90 5.96,-2.87 5.99,-2.84 C 6.01,-2.81 6.04,-2.78 6.06,-2.76 C 6.09,-2.73 6.11,-2.70 6.14,-2.67 C 6.16,-2.64 6.19,-2.61 6.21,-2.58 C 6.24,-2.55 6.26,-2.52 6.28,-2.49 C 6.31,-2.46 6.33,-2.43 6.36,-2.40 C 6.38,-2.37 6.40,-2.34 6.43,-2.31 C 6.45,-2.28 6.47,-2.25 6.50,-2.21 C 6.52,-2.18 6.54,-2.15 6.56,-2.12 C 6.59,-2.09 6.61,-2.05 6.63,-2.02 C 6.65,-1.99 6.67,-1.96 6.70,-1.92 C 6.72,-1.89 6.74,-1.86 6.76,-1.82 C 6.78,-1.79 6.80,-1.75 6.82,-1.72 C 6.84,-1.69 6.86,-1.65 6.88,-1.62 C 6.91,-1.58 6.93,-1.55 6.95,-1.51 C 6.96,-1.48 6.98,-1.44 7.00,-1.40 C 7.02,-1.37 7.04,-1.33 7.06,-1.30 C 7.08,-1.26 7.10,-1.22 7.12,-1.19 C 7.14,-1.15 7.15,-1.11 7.17,-1.08 C 7.19,-1.04 7.21,-1.00 7.22,-0.96 C 7.24,-0.93 7.26,-0.89 7.27,-0.85 C 7.29,-0.81 7.31,-0.77 7.32,-0.73 C 7.34,-0.70 7.36,-0.66 7.37,-0.62 C 7.39,-0.58 7.40,-0.54 7.42,-0.50 C 7.43,-0.46 7.45,-0.42 7.46,-0.38 C 7.48,-0.34 7.49,-0.30 7.51,-0.26 C 7.52,-0.22 7.53,-0.18 7.55,-0.14 C 7.56,-0.10 7.57,-0.06 7.59,-0.01 C 7.60,0.03 7.61,0.07 7.62,0.11 C 7.63,0.15 7.65,0.19 7.66,0.24 C 7.67,0.28 7.68,0.32 7.69,0.36 C 7.70,0.41 7.71,0.45 7.72,0.49 C 7.73,0.53 7.74,0.58 7.75,0.62 C 7.76,0.66 7.77,0.71 7.78,0.75 C 7.79,0.79 7.80,0.84 7.81,0.88 C 7.81,0.93 7.82,0.97 7.83,1.01 C 7.84,1.06 7.84,1.10 7.85,1.15 C 7.86,1.19 7.86,1.24 7.87,1.28 C 7.88,1.33 7.88,1.37 7.89,1.42 C 7.89,1.46 7.90,1.51 7.90,1.55 C 7.91,1.60 7.91,1.65 7.92,1.69 C 7.92,1.74 7.92,1.78 7.93,1.83 C 7.93,1.88 7.93,1.92 7.94,1.97 C 7.94,2.02 7.94,2.06 7.94,2.11 C 7.94,2.16 7.95,2.20 7.95,2.25 C 7.95,2.30 7.95,2.34 7.95,2.39 C 7.95,2.44 7.95,2.49 7.95,2.53 C 7.95,2.58 7.95,2.63 7.95,2.68 C 7.94,2.72 7.94,2.77 7.94,2.82 C 7.94,2.87 7.94,2.92 7.93,2.96 C 7.93,3.01 7.93,3.06 7.92,3.11 C 7.92,3.16 7.91,3.21 7.91,3.25 C 7.91,3.30 7.90,3.35 7.90,3.40 C 7.89,3.45 7.88,3.50 7.88,3.55 C 7.87,3.59 7.87,3.64 7.86,3.69 C 7.85,3.74 7.84,3.79 7.84,3.84 C 7.83,3.89 7.82,3.94 7.81,3.99 C 7.80,4.04 7.79,4.09 7.78,4.13 C 7.77,4.18 7.76,4.23 7.75,4.28 C 7.74,4.33 7.73,4.38 7.72,4.43 C 7.71,4.48 7.70,4.53 7.69,4.58 C 7.67,4.63 7.66,4.68 7.65,4.73 C 7.64,4.78 7.62,4.83 7.61,4.88 C 7.60,4.93 7.58,4.98 7.57,5.03 C 7.55,5.07 7.54,5.12 7.52,5.17 C 7.50,5.22 7.49,5.27 7.47,5.32 C 7.46,5.37 7.44,5.42 7.42,5.47 C 7.40,5.52 7.39,5.57 7.37,5.62 C 7.35,5.67 7.33,5.72 7.31,5.77 C 7.29,5.82 7.27,5.87 7.25,5.92 C 7.23,5.97 7.21,6.02 7.19,6.06 C 7.17,6.11 7.15,6.16 7.13,6.21 C 7.10,6.26 7.08,6.31 7.06,6.36 C 7.04,6.41 7.01,6.46 6.99,6.51 C 6.97,6.56 6.94,6.60 6.92,6.65 C 6.89,6.70 6.87,6.75 6.84,6.80 C 6.82,6.85 6.79,6.90 6.76,6.94 C 6.74,6.99 6.71,7.04 6.68,7.09 C 6.65,7.14 6.63,7.19 6.60,7.23 C 6.57,7.28 6.54,7.33 6.51,7.38 C 6.48,7.43 6.45,7.47 6.42,7.52 C 6.39,7.57 6.36,7.62 6.33,7.66 C 6.30,7.71 6.27,7.76 6.24,7.80 C 6.20,7.85 6.17,7.90 6.14,7.94 C 6.10,7.99 6.07,8.04 6.04,8.08 C 6.00,8.13 5.97,8.18 5.93,8.22 C 5.90,8.27 5.86,8.31 5.83,8.36 C 5.79,8.41 5.76,8.45 5.72,8.50 C 5.68,8.54 5.65,8.59 5.61,8.63 C 5.57,8.68 5.53,8.72 5.49,8.77 C 5.45,8.81 5.42,8.86 5.38,8.90 C 5.34,8.94 5.30,8.99 5.26,9.03 C 5.22,9.07 5.17,9.12 5.13,9.16 C 5.09,9.20 5.05,9.25 5.01,9.29 C 4.97,9.33 4.92,9.38 4.88,9.42 C 4.84,9.46 4.79,9.50 4.75,9.54 C 4.71,9.59 4.66,9.63 4.62,9.67 C 4.57,9.71 4.53,9.75 4.48,9.79 C 4.43,9.83 4.39,9.87 4.34,9.91 C 4.29,9.95 4.25,9.99 4.20,10.03 C 4.15,10.07 4.10,10.11 4.05,10.15 C 4.01,10.19 3.96,10.23 3.91,10.27 C 3.86,10.31 3.81,10.34 3.76,10.38 C 3.71,10.42 3.66,10.46 3.61,10.49 C 3.56,10.53 3.50,10.57 3.45,10.60 C 3.40,10.64 3.35,10.68 3.29,10.71 C 3.24,10.75 3.19,10.78 3.13,10.82 C 3.08,10.85 3.03,10.89 2.97,10.92 C 2.92,10.96 2.86,10.99 2.81,11.03 C 2.75,11.06 2.70,11.09 2.64,11.12 C 2.58,11.16 2.53,11.19 2.47,11.22 C 2.41,11.25 2.36,11.29 2.30,11.32 C 2.24,11.35 2.18,11.38 2.12,11.41 C 2.07,11.44 2.01,11.47 1.95,11.50 C 1.89,11.53 1.83,11.56 1.77,11.59 C 1.71,11.62 1.65,11.65 1.59,11.68 C 1.53,11.70 1.46,11.73 1.40,11.76 C 1.34,11.79 1.28,11.81 1.22,11.84 C 1.15,11.87 1.09,11.89 1.03,11.92 C 0.96,11.94 0.90,11.97 0.84,11.99 C 0.77,12.02 0.71,12.04 0.64,12.06 C 0.58,12.09 0.51,12.11 0.45,12.13 C 0.38,12.16 0.32,12.18 0.25,12.20 C 0.19,12.22 0.12,12.24 0.05,12.26 C -0.01,12.28 -0.08,12.30 -0.15,12.32 C -0.22,12.34 -0.28,12.36 -0.35,12.38 C -0.42,12.40 -0.49,12.42 -0.56,12.44 C -0.62,12.45 -0.69,12.47 -0.76,12.49 C -0.83,12.51 -0.90,12.52 -0.97,12.54 C -1.04,12.55 -1.11,12.57 -1.18,12.58 C -1.25,12.60 -1.32,12.61 -1.39,12.62 C -1.47,12.64 -1.54,12.65 -1.61,12.66 C -1.68,12.68 -1.75,12.69 -1.82,12.70 C -1.90,12.71 -1.97,12.72 -2.04,12.73 C -2.11,12.74 -2.19,12.75 -2.26,12.76 C -2.33,12.77 -2.41,12.78 -2.48,12.78 C -2.56,12.79 -2.63,12.80 -2.70,12.81 C -2.78,12.81 -2.85,12.82 -2.93,12.82 C -3.00,12.83 -3.08,12.83 -3.15,12.84 C -3.23,12.84 -3.30,12.85 -3.38,12.85 C -3.45,12.85 -3.53,12.86 -3.61,12.86 C -3.68,12.86 -3.76,12.86 -3.83,12.86 C -3.91,12.86 -3.99,12.86 -4.06,12.86 C -4.14,12.86 -4.22,12.86 -4.29,12.86 C -4.37,12.85 -4.45,12.85 -4.53,12.85 C -4.60,12.85 -4.68,12.84 -4.76,12.84 C -4.84,12.83 -4.92,12.83 -4.99,12.82 C -5.07,12.82 -5.15,12.81 -5.23,12.80 C -5.31,12.80 -5.39,12.79 -5.46,12.78 C -5.54,12.77 -5.61,12.76 -5.70,12.75  L -6.09,24.44  -6.09,24.44 C -5.57,24.41 -5.42,24.39 -5.28,24.38 C -5.14,24.37 -5.00,24.36 -4.86,24.34 C -4.72,24.33 -4.58,24.31 -4.44,24.30 C -4.30,24.28 -4.16,24.26 -4.02,24.25 C -3.88,24.23 -3.74,24.21 -3.61,24.19 C -3.47,24.17 -3.33,24.14 -3.19,24.12 C -3.06,24.10 -2.92,24.07 -2.79,24.05 C -2.65,24.02 -2.51,24.00 -2.38,23.97 C -2.25,23.94 -2.11,23.92 -1.98,23.89 C -1.84,23.86 -1.71,23.83 -1.58,23.80 C -1.45,23.77 -1.32,23.73 -1.18,23.70 C -1.05,23.67 -0.92,23.63 -0.79,23.60 C -0.66,23.56 -0.53,23.53 -0.41,23.49 C -0.28,23.45 -0.15,23.42 -0.02,23.38 C 0.11,23.34 0.23,23.30 0.36,23.26 C 0.48,23.22 0.61,23.18 0.73,23.13 C 0.86,23.09 0.98,23.05 1.11,23.00 C 1.23,22.96 1.35,22.91 1.47,22.87 C 1.60,22.82 1.72,22.77 1.84,22.73 C 1.96,22.68 2.08,22.63 2.20,22.58 C 2.32,22.53 2.44,22.48 2.55,22.43 C 2.67,22.38 2.79,22.32 2.91,22.27 C 3.02,22.22 3.14,22.16 3.25,22.11 C 3.37,22.05 3.48,22.00 3.60,21.94 C 3.71,21.89 3.82,21.83 3.93,21.77 C 4.05,21.71 4.16,21.66 4.27,21.60 C 4.38,21.54 4.49,21.48 4.60,21.42 C 4.71,21.36 4.81,21.29 4.92,21.23 C 5.03,21.17 5.14,21.11 5.24,21.04 C 5.35,20.98 5.45,20.92 5.56,20.85 C 5.66,20.79 5.76,20.72 5.87,20.65 C 5.97,20.59 6.07,20.52 6.17,20.45 C 6.27,20.38 6.37,20.32 6.47,20.25 C 6.57,20.18 6.67,20.11 6.77,20.04 C 6.87,19.97 6.96,19.90 7.06,19.83 C 7.16,19.75 7.25,19.68 7.35,19.61 C 7.44,19.54 7.53,19.46 7.63,19.39 C 7.72,19.32 7.81,19.24 7.90,19.17 C 7.99,19.09 8.08,19.02 8.17,18.94 C 8.26,18.86 8.35,18.79 8.44,18.71 C 8.53,18.63 8.62,18.55 8.70,18.48 C 8.79,18.40 8.87,18.32 8.96,18.24 C 9.04,18.16 9.12,18.08 9.21,18.00 C 9.29,17.92 9.37,17.84 9.45,17.76 C 9.53,17.68 9.61,17.60 9.69,17.51 C 9.77,17.43 9.85,17.35 9.93,17.27 C 10.01,17.18 10.08,17.10 10.16,17.02 C 10.23,16.93 10.31,16.85 10.38,16.76 C 10.46,16.68 10.53,16.60 10.60,16.51 C 10.67,16.42 10.75,16.34 10.82,16.25 C 10.89,16.17 10.96,16.08 11.02,15.99 C 11.09,15.91 11.16,15.82 11.23,15.73 C 11.29,15.65 11.36,15.56 11.43,15.47 C 11.49,15.38 11.56,15.29 11.62,15.20 C 11.68,15.12 11.74,15.03 11.81,14.94 C 11.87,14.85 11.93,14.76 11.99,14.67 C 12.05,14.58 12.11,14.49 12.17,14.40 C 12.22,14.31 12.28,14.22 12.34,14.13 C 12.39,14.04 12.45,13.95 12.50,13.85 C 12.56,13.76 12.61,13.67 12.67,13.58 C 12.72,13.49 12.77,13.40 12.82,13.31 C 12.87,13.21 12.92,13.12 12.97,13.03 C 13.02,12.94 13.07,12.84 13.12,12.75 C 13.16,12.66 13.21,12.57 13.26,12.47 C 13.30,12.38 13.35,12.29 13.39,12.19 C 13.44,12.10 13.48,12.01 13.52,11.91 C 13.56,11.82 13.60,11.73 13.65,11.63 C 13.69,11.54 13.73,11.44 13.76,11.35 C 13.80,11.26 13.84,11.16 13.88,11.07 C 13.92,10.97 13.95,10.88 13.99,10.79 C 14.02,10.69 14.06,10.60 14.09,10.50 C 14.12,10.41 14.16,10.32 14.19,10.22 C 14.22,10.13 14.25,10.03 14.28,9.94 C 14.31,9.84 14.34,9.75 14.37,9.65 C 14.40,9.56 14.43,9.47 14.45,9.37 C 14.48,9.28 14.51,9.18 14.53,9.09 C 14.56,8.99 14.58,8.90 14.61,8.81 C 14.63,8.71 14.65,8.62 14.67,8.52 C 14.70,8.43 14.72,8.34 14.74,8.24 C 14.76,8.15 14.78,8.05 14.80,7.96 C 14.81,7.87 14.83,7.77 14.85,7.68 C 14.87,7.58 14.88,7.49 14.90,7.40 C 14.91,7.30 14.93,7.21 14.94,7.12 C 14.96,7.02 14.97,6.93 14.98,6.84 C 14.99,6.75 15.01,6.65 15.02,6.56 C 15.03,6.47 15.04,6.37 15.05,6.28 C 15.05,6.19 15.06,6.10 15.07,6.01 C 15.08,5.91 15.08,5.82 15.09,5.73 C 15.10,5.64 15.10,5.55 15.11,5.45 C 15.11,5.36 15.11,5.27 15.12,5.18 C 15.12,5.09 15.12,5.00 15.12,4.91 C 15.13,4.82 15.13,4.73 15.13,4.64 C 15.13,4.55 15.13,4.46 15.12,4.37 C 15.12,4.28 15.12,4.19 15.12,4.10 C 15.12,4.01 15.11,3.92 15.11,3.83 C 15.10,3.74 15.10,3.66 15.09,3.57 C 15.09,3.48 15.08,3.39 15.07,3.30 C 15.07,3.22 15.06,3.13 15.05,3.04 C 15.04,2.96 15.03,2.87 15.02,2.78 C 15.01,2.70 15.00,2.61 14.99,2.52 C 14.98,2.44 14.97,2.35 14.95,2.27 C 14.94,2.18 14.93,2.10 14.91,2.01 C 14.90,1.93 14.89,1.84 14.87,1.76 C 14.86,1.68 14.84,1.59 14.82,1.51 C 14.81,1.43 14.79,1.34 14.77,1.26 C 14.75,1.18 14.74,1.10 14.72,1.01 C 14.70,0.93 14.68,0.85 14.66,0.77 C 14.64,0.69 14.62,0.61 14.59,0.53 C 14.57,0.45 14.55,0.37 14.53,0.29 C 14.51,0.21 14.48,0.13 14.46,0.05 C 14.44,-0.03 14.41,-0.11 14.39,-0.19 C 14.36,-0.26 14.33,-0.34 14.31,-0.42 C 14.28,-0.50 14.26,-0.57 14.23,-0.65 C 14.20,-0.73 14.17,-0.80 14.15,-0.88 C 14.12,-0.95 14.09,-1.03 14.06,-1.10 C 14.03,-1.18 14.00,-1.25 13.97,-1.32 C 13.94,-1.40 13.91,-1.47 13.88,-1.55 C 13.84,-1.62 13.81,-1.69 13.78,-1.76 C 13.75,-1.83 13.71,-1.91 13.68,-1.98 C 13.65,-2.05 13.61,-2.12 13.58,-2.19 C 13.54,-2.26 13.51,-2.33 13.47,-2.40 C 13.44,-2.47 13.40,-2.54 13.36,-2.61 C 13.33,-2.67 13.29,-2.74 13.25,-2.81 C 13.22,-2.88 13.18,-2.94 13.14,-3.01 C 13.10,-3.08 13.06,-3.14 13.02,-3.21 C 12.98,-3.27 12.94,-3.34 12.90,-3.40 C 12.86,-3.47 12.82,-3.53 12.78,-3.60 C 12.74,-3.66 12.70,-3.72 12.66,-3.79 C 12.62,-3.85 12.58,-3.91 12.53,-3.97 C 12.49,-4.03 12.45,-4.10 12.40,-4.16 C 12.36,-4.22 12.32,-4.28 12.27,-4.34 C 12.23,-4.40 12.18,-4.45 12.14,-4.51 C 12.09,-4.57 12.05,-4.63 12.00,-4.69 C 11.96,-4.75 11.91,-4.80 11.87,-4.86 C 11.82,-4.92 11.77,-4.97 11.73,-5.03 C 11.68,-5.08 11.63,-5.14 11.58,-5.19 C 11.54,-5.25 11.49,-5.30 11.44,-5.35 C 11.39,-5.41 11.34,-5.46 11.30,-5.51 C 11.25,-5.56 11.20,-5.62 11.15,-5.67 C 11.10,-5.72 11.05,-5.77 11.00,-5.82 C 10.95,-5.87 10.90,-5.92 10.85,-5.97 C 10.80,-6.02 10.75,-6.07 10.70,-6.11 C 10.64,-6.16 10.59,-6.21 10.54,-6.26 C 10.49,-6.30 10.44,-6.35 10.39,-6.40 C 10.33,-6.44 10.28,-6.49 10.23,-6.53 C 10.18,-6.58 10.12,-6.62 10.07,-6.66 C 10.02,-6.71 9.96,-6.75 9.91,-6.79 C 9.86,-6.84 9.80,-6.88 9.75,-6.92 C 9.69,-6.96 9.64,-7.00 9.59,-7.04 C 9.53,-7.08 9.48,-7.12 9.42,-7.16 C 9.37,-7.20 9.31,-7.24 9.26,-7.28 C 9.20,-7.32 9.15,-7.36 9.09,-7.39 C 9.04,-7.43 8.98,-7.47 8.93,-7.50 C 8.87,-7.54 8.81,-7.57 8.76,-7.61 C 8.70,-7.64 8.65,-7.68 8.59,-7.71 C 8.53,-7.75 8.48,-7.78 8.42,-7.81 C 8.36,-7.85 8.31,-7.88 8.25,-7.91 C 8.19,-7.94 8.14,-7.97 8.08,-8.00 C 8.02,-8.03 7.96,-8.06 7.91,-8.09 C 7.85,-8.12 7.79,-8.15 7.73,-8.18 C 7.68,-8.21 7.62,-8.24 7.56,-8.26 C 7.50,-8.29 7.45,-8.32 7.39,-8.34 C 7.33,-8.37 7.27,-8.40 7.22,-8.42 C 7.16,-8.45 7.10,-8.47 7.04,-8.50 C 6.98,-8.52 6.93,-8.54 6.87,-8.57 C 6.81,-8.59 6.75,-8.61 6.69,-8.63 C 6.64,-8.66 6.58,-8.68 6.52,-8.70 C 6.46,-8.72 6.40,-8.74 6.34,-8.76 C 6.29,-8.78 6.23,-8.80 6.17,-8.82 C 6.11,-8.84 6.05,-8.86 5.99,-8.87 C 5.94,-8.89 5.88,-8.91 5.82,-8.93 C 5.76,-8.94 5.70,-8.96 5.64,-8.97 C 5.59,-8.99 5.53,-9.01 5.47,-9.02 C 5.41,-9.04 5.35,-9.05 5.29,-9.06 C 5.24,-9.08 5.18,-9.09 5.12,-9.10 C 5.06,-9.12 5.00,-9.13 4.95,-9.14 C 4.89,-9.15 4.83,-9.16 4.77,-9.17 C 4.71,-9.18 4.66,-9.19 4.60,-9.20 C 4.54,-9.21 4.48,-9.22 4.43,-9.23 C 4.37,-9.24 4.31,-9.25 4.25,-9.26 C 4.20,-9.26 4.14,-9.27 4.08,-9.28 C 4.02,-9.28 3.97,-9.29 3.91,-9.30 C 3.85,-9.30 3.79,-9.31 3.74,-9.31 C 3.68,-9.32 3.62,-9.32 3.57,-9.32 C 3.51,-9.33 3.45,-9.33 3.40,-9.34 C 3.34,-9.34 3.28,-9.34 3.23,-9.34 C 3.17,-9.34 3.12,-9.35 3.06,-9.35 C 3.00,-9.35 2.95,-9.35 2.89,-9.35 C 2.84,-9.35 2.78,-9.35 2.73,-9.35 C 2.67,-9.35 2.61,-9.35 2.56,-9.34 C 2.50,-9.34 2.45,-9.34 2.39,-9.34 C 2.34,-9.34 2.28,-9.33 2.23,-9.33 C 2.18,-9.33 2.12,-9.32 2.07,-9.32 C 2.01,-9.31 1.96,-9.31 1.91,-9.30 C 1.85,-9.30 1.80,-9.29 1.74,-9.29 C 1.69,-9.28 1.64,-9.27 1.58,-9.27 C 1.53,-9.26 1.48,-9.25 1.43,-9.25 C 1.37,-9.24 1.32,-9.23 1.27,-9.22 C 1.22,-9.21 1.16,-9.20 1.11,-9.19 C 1.06,-9.19 1.01,-9.18 0.96,-9.17 C 0.91,-9.16 0.85,-9.15 0.80,-9.13 C 0.75,-9.12 0.70,-9.11 0.65,-9.10 C 0.60,-9.09 0.55,-9.08 0.50,-9.06 C 0.45,-9.05 0.40,-9.04 0.35,-9.03 C 0.30,-9.01 0.25,-9.00 0.20,-8.99 C 0.15,-8.97 0.10,-8.96 0.05,-8.94 C 0.00,-8.93 -0.04,-8.91 -0.09,-8.90 C -0.14,-8.88 -0.19,-8.87 -0.24,-8.85 C -0.28,-8.83 -0.33,-8.82 -0.38,-8.80 C -0.43,-8.78 -0.47,-8.77 -0.52,-8.75 C -0.57,-8.73 -0.61,-8.72 -0.66,-8.70 C -0.71,-8.68 -0.75,-8.66 -0.80,-8.64 C -0.84,-8.62 -0.89,-8.60 -0.93,-8.58 C -0.98,-8.57 -1.02,-8.55 -1.07,-8.53 C -1.11,-8.51 -1.16,-8.48 -1.20,-8.46 C -1.25,-8.44 -1.29,-8.42 -1.33,-8.40 C -1.38,-8.38 -1.42,-8.36 -1.46,-8.34 C -1.51,-8.31 -1.55,-8.29 -1.59,-8.27 C -1.63,-8.25 -1.68,-8.22 -1.72,-8.20 C -1.76,-8.18 -1.80,-8.16 -1.84,-8.13 C -1.88,-8.11 -1.92,-8.08 -1.96,-8.06 C -2.01,-8.04 -2.05,-8.01 -2.09,-7.99 C -2.13,-7.96 -2.17,-7.94 -2.20,-7.91 C -2.24,-7.89 -2.28,-7.86 -2.32,-7.84 C -2.36,-7.81 -2.40,-7.78 -2.44,-7.76 C -2.48,-7.73 -2.51,-7.71 -2.55,-7.68 C -2.59,-7.65 -2.63,-7.62 -2.66,-7.60 C -2.70,-7.57 -2.74,-7.54 -2.77,-7.52 C -2.81,-7.49 -2.84,-7.46 -2.88,-7.43 C -2.92,-7.40 -2.95,-7.38 -2.99,-7.35 C -3.02,-7.32 -3.06,-7.29 -3.09,-7.26 C -3.13,-7.23 -3.16,-7.20 -3.19,-7.17 C -3.23,-7.14 -3.26,-7.11 -3.29,-7.08 C -3.33,-7.05 -3.36,-7.03 -3.39,-6.99 C -3.42,-6.96 -3.46,-6.93 -3.49,-6.90 C -3.52,-6.87 -3.55,-6.84 -3.58,-6.81 C -3.61,-6.78 -3.64,-6.75 -3.67,-6.72 C -3.70,-6.69 -3.74,-6.66 -3.76,-6.62 C -3.79,-6.59 -3.82,-6.56 -3.85,-6.53 C -3.88,-6.50 -3.91,-6.47 -3.94,-6.43 C -3.97,-6.40 -4.00,-6.37 -4.02,-6.34 C -4.05,-6.30 -4.08,-6.27 -4.11,-6.24 C -4.13,-6.21 -4.16,-6.17 -4.19,-6.14 C -4.21,-6.11 -4.24,-6.07 -4.27,-6.04 C -4.29,-6.01 -4.32,-5.97 -4.34,-5.94 C -4.37,-5.91 -4.39,-5.87 -4.42,-5.84 C -4.44,-5.81 -4.46,-5.77 -4.49,-5.74 C -4.51,-5.70 -4.54,-5.67 -4.56,-5.63 C -4.58,-5.60 -4.60,-5.57 -4.63,-5.53 C -4.65,-5.50 -4.67,-5.46 -4.69,-5.43 C -4.71,-5.39 -4.74,-5.36 -4.76,-5.32 C -4.78,-5.29 -4.80,-5.25 -4.82,-5.22 C -4.84,-5.18 -4.86,-5.15 -4.88,-5.11 C -4.90,-5.08 -4.92,-5.04 -4.94,-5.01 C -4.96,-4.97 -4.97,-4.94 -4.99,-4.90 C -5.01,-4.87 -5.03,-4.83 -5.05,-4.80 C -5.07,-4.76 -5.08,-4.73 -5.10,-4.69 C -5.12,-4.65 -5.13,-4.62 -5.15,-4.58 C -5.17,-4.55 -5.18,-4.51 -5.20,-4.48 C -5.21,-4.44 -5.23,-4.40 -5.24,-4.37 C -5.26,-4.33 -5.27,-4.30 -5.29,-4.26 C -5.30,-4.23 -5.32,-4.19 -5.33,-4.15 C -5.34,-4.12 -5.36,-4.08 -5.37,-4.05 C -5.38,-4.01 -5.40,-3.97 -5.41,-3.94 C -5.42,-3.90 -5.43,-3.87 -5.44,-3.83 C -5.46,-3.79 -5.47,-3.76 -5.48,-3.72 C -5.49,-3.69 -5.50,-3.65 -5.51,-3.61 C -5.52,-3.58 -5.53,-3.54 -5.54,-3.50 C -5.55,-3.47 -5.56,-3.43 -5.57,-3.40 C -5.58,-3.36 -5.59,-3.32 -5.60,-3.29 C -5.61,-3.25 -5.61,-3.22 -5.62,-3.18 C -5.63,-3.15 -5.64,-3.11 -5.65,-3.07 C -5.66,-3.04 -5.67,-3.00 -5.68,-2.97 C -5.69,-2.93 -5.70,-2.90 -5.70,-2.86 C -5.71,-2.83 -5.72,-2.79 -5.73,-2.76 C -5.74,-2.72 -5.74,-2.69 -5.75,-2.65 C -5.76,-2.62 -5.77,-2.58 -5.77,-2.55 C -5.78,-2.51 -5.79,-2.48 -5.79,-2.44 C -5.80,-2.41 -5.80,-2.37 -5.81,-2.33 C -5.82,-2.30 -5.82,-2.26 -5.83,-2.23 C -5.83,-2.19 -5.83,-2.16 -5.84,-2.12 C -5.84,-2.09 -5.85,-2.05 -5.85,-2.02 C -5.85,-1.98 -5.86,-1.95 -5.86,-1.91 C -5.86,-1.88 -5.87,-1.84 -5.87,-1.81 C -5.87,-1.78 -5.87,-1.74 -5.88,-1.71 C -5.88,-1.67 -5.88,-1.64 -5.88,-1.60 C -5.88,-1.57 -5.88,-1.53 -5.89,-1.50 C -5.89,-1.46 -5.89,-1.43 -5.89,-1.40 C -5.89,-1.36 -5.89,-1.33 -5.89,-1.29 C -5.89,-1.26 -5.89,-1.22 -5.89,-1.19 C -5.88,-1.16 -5.88,-1.12 -5.88,-1.09 C -5.88,-1.05 -5.88,-1.02 -5.88,-0.99 C -5.87,-0.95 -5.87,-0.92 -5.87,-0.88 C -5.87,-0.85 -5.86,-0.82 -5.86,-0.78 C -5.86,-0.75 -5.86,-0.72 -5.85,-0.68 C -5.85,-0.65 -5.84,-0.62 -5.84,-0.58 C -5.84,-0.55 -5.83,-0.52 -5.83,-0.49 C -5.82,-0.45 -5.82,-0.42 -5.81,-0.39 C -5.81,-0.35 -5.80,-0.32 -5.80,-0.29 C -5.79,-0.26 -5.79,-0.22 -5.78,-0.19 C -5.77,-0.16 -5.77,-0.13 -5.76,-0.10 C -5.75,-0.06 -5.75,-0.03 -5.74,-0.00 C -5.73,0.03 -5.72,0.06 -5.72,0.09 C -5.71,0.13 -5.70,0.16 -5.69,0.19 C -5.69,0.22 -5.68,0.25 -5.67,0.28 C -5.66,0.31 -5.65,0.34 -5.64,0.38 C -5.63,0.41 -5.62,0.44 -5.61,0.47 C -5.60,0.50 -5.60,0.53 -5.59,0.56 C -5.58,0.59 -5.56,0.62 -5.55,0.65 C -5.54,0.68 -5.53,0.71 -5.52,0.74 C -5.51,0.77 -5.50,0.80 -5.49,0.83 C -5.48,0.86 -5.47,0.89 -5.45,0.92 C -5.44,0.94 -5.43,0.97 -5.42,1.00 C -5.41,1.03 -5.39,1.06 -5.38,1.09 C -5.37,1.12 -5.36,1.14 -5.34,1.17 C -5.33,1.20 -5.32,1.23 -5.30,1.26 C -5.29,1.28 -5.28,1.31 -5.26,1.34 C -5.25,1.37 -5.23,1.40 -5.22,1.42 C -5.21,1.45 -5.19,1.48 -5.18,1.50 C -5.16,1.53 -5.15,1.56 -5.13,1.58 C -5.12,1.61 -5.10,1.64 -5.09,1.66 C -5.07,1.69 -5.06,1.71 -5.04,1.74 C -5.02,1.77 -5.01,1.79 -4.99,1.82 C -4.98,1.84 -4.96,1.87 -4.94,1.89 C -4.93,1.92 -4.91,1.94 -4.89,1.97 C -4.88,1.99 -4.86,2.02 -4.84,2.04 C -4.83,2.07 -4.81,2.09 -4.79,2.11 C -4.77,2.14 -4.76,2.16 -4.74,2.19 C -4.72,2.21 -4.70,2.23 -4.68,2.26 C -4.67,2.28 -4.65,2.30 -4.63,2.33 C -4.61,2.35 -4.59,2.37 -4.57,2.39 C -4.55,2.42 -4.54,2.44 -4.52,2.46 C -4.50,2.48 -4.48,2.51 -4.46,2.53 C -4.44,2.55 -4.42,2.57 -4.40,2.59 C -4.38,2.61 -4.36,2.63 -4.34,2.65 C -4.32,2.68 -4.30,2.70 -4.28,2.72 C -4.26,2.74 -4.24,2.76 -4.22,2.78 C -4.20,2.80 -4.18,2.82 -4.16,2.84 C -4.14,2.86 -4.12,2.88 -4.10,2.90 C -4.08,2.92 -4.05,2.93 -4.03,2.95 C -4.01,2.97 -3.99,2.99 -3.97,3.01 C -3.95,3.03 -3.93,3.05 -3.91,3.06 C -3.88,3.08 -3.86,3.10 -3.84,3.12 C -3.82,3.14 -3.80,3.15 -3.77,3.17 C -3.75,3.19 -3.73,3.20 -3.71,3.22 C -3.69,3.24 -3.66,3.26 -3.64,3.27 C -3.62,3.29 -3.60,3.30 -3.57,3.32 C -3.55,3.34 -3.53,3.35 -3.51,3.37 C -3.48,3.38 -3.46,3.40 -3.44,3.41 C -3.41,3.43 -3.39,3.44 -3.37,3.46 C -3.34,3.47 -3.32,3.49 -3.30,3.50 C -3.27,3.52 -3.25,3.53 -3.23,3.54 C -3.20,3.56 -3.18,3.57 -3.16,3.58 C -3.13,3.60 -3.11,3.61 -3.09,3.62 C -3.06,3.64 -3.04,3.65 -3.02,3.66 C -2.99,3.67 -2.97,3.69 -2.94,3.70 C -2.92,3.71 -2.90,3.72 -2.87,3.73 C -2.85,3.75 -2.82,3.76 -2.80,3.77 C -2.78,3.78 -2.75,3.79 -2.73,3.80 C -2.70,3.81 -2.68,3.82 -2.65,3.83 C -2.63,3.84 -2.61,3.85 -2.58,3.86 C -2.56,3.87 -2.53,3.88 -2.51,3.89 C -2.48,3.90 -2.46,3.91 -2.43,3.92 C -2.41,3.93 -2.39,3.94 -2.36,3.95 C -2.34,3.96 -2.31,3.96 -2.29,3.97 C -2.26,3.98 -2.24,3.99 -2.21,4.00 C -2.19,4.00 -2.16,4.01 -2.14,4.02 C -2.11,4.03 -2.09,4.03 -2.06,4.04 C -2.04,4.05 -2.01,4.05 -1.99,4.06 C -1.97,4.07 -1.94,4.07 -1.92,4.08 C -1.89,4.09 -1.87,4.09 -1.84,4.10 C -1.82,4.10 -1.79,4.11 -1.77,4.11 C -1.74,4.12 -1.72,4.12 -1.69,4.13 C -1.67,4.13 -1.64,4.14 -1.62,4.14 C -1.59,4.15 -1.57,4.15 -1.54,4.15 C -1.52,4.16 -1.49,4.16 -1.47,4.17 C -1.44,4.17 -1.42,4.17 -1.39,4.18 C -1.37,4.18 -1.34,4.18 -1.32,4.18 C -1.30,4.19 -1.27,4.19 -1.25,4.19 C -1.22,4.19 -1.20,4.20 -1.17,4.20 C -1.15,4.20 -1.12,4.20 -1.10,4.20 C -1.07,4.20 -1.05,4.21 -1.02,4.21 C -1.00,4.21 -0.98,4.21 -0.95,4.21 C -0.93,4.21 -0.90,4.21 -0.88,4.21 C -0.85,4.21 -0.83,4.21 -0.81,4.21 C -0.78,4.21 -0.76,4.21 -0.73,4.21 C -0.71,4.21 -0.68,4.21 -0.66,4.21 C -0.64,4.21 -0.61,4.21 -0.59,4.20 C -0.56,4.20 -0.54,4.20 -0.52,4.20 C -0.49,4.20 -0.47,4.20 -0.44,4.19 C -0.42,4.19 -0.40,4.19 -0.37,4.19 C -0.35,4.19 -0.33,4.18 -0.30,4.18 C -0.28,4.18 -0.26,4.17 -0.23,4.17 C -0.21,4.17 -0.18,4.16 -0.16,4.16 C -0.14,4.16 -0.11,4.15 -0.09,4.15 C -0.07,4.15 -0.05,4.14 -0.02,4.14 C 0.00,4.13 0.02,4.13 0.05,4.12 C 0.07,4.12 0.09,4.11 0.11,4.11 C 0.14,4.10 0.16,4.10 0.18,4.09 C 0.21,4.09 0.23,4.08 0.25,4.08 C 0.27,4.07 0.29,4.06 0.32,4.06 C 0.34,4.05 0.36,4.05 0.38,4.04 C 0.41,4.03 0.43,4.03 0.45,4.02 C 0.47,4.01 0.49,4.01 0.51,4.00 C 0.54,3.99 0.56,3.98 0.58,3.98 C 0.60,3.97 0.62,3.96 0.64,3.95 C 0.67,3.95 0.69,3.94 0.71,3.93 C 0.73,3.92 0.75,3.91 0.77,3.91 C 0.79,3.90 0.81,3.89 0.83,3.88 C 0.85,3.87 0.87,3.86 0.89,3.85 C 0.92,3.84 0.94,3.84 0.96,3.83 C 0.98,3.82 1.00,3.81 1.02,3.80 C 1.04,3.79 1.06,3.78 1.08,3.77 C 1.10,3.76 1.12,3.75 1.14,3.74 C 1.16,3.73 1.17,3.72 1.19,3.71 C 1.21,3.70 1.23,3.69 1.25,3.68 C 1.27,3.66 1.29,3.65 1.31,3.64 C 1.33,3.63 1.35,3.62 1.37,3.61 C 1.38,3.60 1.40,3.59 1.42,3.58 C 1.44,3.56 1.46,3.55 1.48,3.54 C 1.49,3.53 1.51,3.52 1.53,3.50 C 1.55,3.49 1.57,3.48 1.58,3.47 C 1.60,3.45 1.62,3.44 1.64,3.43 C 1.65,3.42 1.67,3.40 1.69,3.39 C 1.71,3.38 1.72,3.37 1.74,3.35 C 1.76,3.34 1.77,3.33 1.79,3.31 C 1.81,3.30 1.82,3.29 1.84,3.27 C 1.86,3.26 1.87,3.25 1.89,3.23 C 1.90,3.22 1.92,3.20 1.94,3.19 C 1.95,3.18 1.97,3.16 1.98,3.15 C 2.00,3.13 2.01,3.12 2.03,3.11 C 2.04,3.09 2.06,3.08 2.07,3.06 C 2.09,3.05 2.10,3.03 2.12,3.02 C 2.13,3.00 2.15,2.99 2.16,2.97 C 2.18,2.96 2.19,2.94 2.20,2.93 C 2.22,2.91 2.23,2.90 2.25,2.88 C 2.26,2.87 2.27,2.85 2.29,2.84 C 2.30,2.82 2.31,2.80 2.33,2.79 C 2.34,2.77 2.35,2.76 2.37,2.74 C 2.38,2.73 2.39,2.71 2.40,2.69 C 2.42,2.68 2.43,2.66 2.44,2.64 C 2.45,2.63 2.47,2.61 2.48,2.60 C 2.49,2.58 2.50,2.56 2.51,2.55 C 2.53,2.53 2.54,2.51 2.55,2.50 C 2.56,2.48 2.57,2.46 2.58,2.45 C 2.59,2.43 2.60,2.41 2.62,2.40 C 2.63,2.38 2.64,2.36 2.65,2.35 C 2.66,2.33 2.67,2.31 2.68,2.29 C 2.69,2.28 2.70,2.26 2.71,2.24 C 2.72,2.23 2.73,2.21 2.74,2.19 C 2.75,2.17 2.76,2.16 2.77,2.14 C 2.78,2.12 2.78,2.10 2.79,2.09 C 2.80,2.07 2.81,2.05 2.82,2.03 C 2.83,2.02 2.84,2.00 2.85,1.98 C 2.85,1.96 2.86,1.94 2.87,1.93 C 2.88,1.91 2.89,1.89 2.89,1.87 C 2.90,1.86 2.91,1.84 2.92,1.82 C 2.92,1.80 2.93,1.78 2.94,1.77 C 2.94,1.75 2.95,1.73 2.96,1.71 C 2.96,1.69 2.97,1.68 2.98,1.66 C 2.98,1.64 2.99,1.62 3.00,1.60 C 3.00,1.58 3.01,1.57 3.01,1.55 C 3.02,1.53 3.03,1.51 3.03,1.49 C 3.04,1.47 3.04,1.46 3.05,1.44 C 3.05,1.42 3.06,1.40 3.06,1.38 C 3.07,1.36 3.07,1.35 3.08,1.33 C 3.08,1.31 3.08,1.29 3.09,1.27 C 3.09,1.25 3.10,1.24 3.10,1.22 C 3.11,1.20 3.11,1.18 3.11,1.16 C 3.12,1.14 3.12,1.13 3.12,1.11 C 3.13,1.09 3.13,1.07 3.13,1.05 C 3.14,1.03 3.14,1.02 3.14,1.00 C 3.14,0.98 3.15,0.96 3.15,0.94 C 3.15,0.92 3.15,0.90 3.15,0.89 C 3.16,0.87 3.16,0.85 3.16,0.83 C 3.16,0.81 3.16,0.79 3.17,0.78 C 3.17,0.76 3.17,0.74 3.17,0.72 C 3.17,0.70 3.17,0.68 3.17,0.67 C 3.17,0.65 3.17,0.63 3.17,0.61 C 3.17,0.59 3.18,0.58 3.18,0.56 C 3.18,0.54 3.18,0.52 3.18,0.50 C 3.18,0.48 3.18,0.47 3.18,0.45 C 3.17,0.43 3.17,0.41 3.17,0.39 C 3.17,0.38 3.17,0.36 3.17,0.34 C 3.17,0.32 3.17,0.30 3.17,0.29 C 3.17,0.27 3.17,0.25 3.16,0.23 C 3.16,0.21 3.16,0.20 3.16,0.18 C 3.16,0.16 3.16,0.14 3.15,0.13 C 3.15,0.11 3.15,0.09 3.15,0.07 C 3.14,0.06 3.14,0.04 3.14,0.02 C 3.14,0.00 3.13,-0.01 3.13,-0.03 C 3.13,-0.05 3.12,-0.07 3.12,-0.08 C 3.12,-0.10 3.11,-0.12 3.11,-0.14 C 3.11,-0.15 3.10,-0.17 3.10,-0.19 C 3.10,-0.20 3.09,-0.22 3.09,-0.24 C 3.08,-0.26 3.08,-0.27 3.08,-0.29 C 3.07,-0.31 3.07,-0.32 3.06,-0.34 C 3.06,-0.36 3.05,-0.37 3.05,-0.39  Z" fill="url(#g)"/>
</svg>